<svg width="580" height="412" viewBox="0 0 580 412" fill="none" xmlns="http://www.w3.org/2000/svg">
<path d="M537 326C560.748 326 580 345.252 580 369C580 392.748 560.748 412 537 412H43C19.2518 412 0 392.748 0 369C0 345.252 19.2518 326 43 326H537ZM537 163C560.748 163 580 182.252 580 206C580 229.748 560.748 249 537 249H43C19.2518 249 0 229.748 0 206C0 182.252 19.2518 163 43 163H537ZM537 0C560.748 0 580 19.2518 580 43C580 66.7482 560.748 86 537 86H43C19.2518 86 0 66.7482 0 43C0 19.2518 19.2518 7.89322e-07 43 0H537Z" fill="#A0C3E3"/>
</svg>
