<svg width="504" height="505" viewBox="0 0 504 505" fill="none" xmlns="http://www.w3.org/2000/svg">
<path d="M192.5 0C298.815 0 385 86.1852 385 192.5C385 237.653 369.451 279.171 343.42 312.002L360.789 329.371C374.266 322.645 391.083 324.899 402.32 336.136L492.962 426.777C507.021 440.836 507.021 463.631 492.962 477.689L476.698 493.953C462.639 508.012 439.845 508.012 425.786 493.953L335.145 403.312C323.819 391.986 321.62 374.992 328.542 361.462L311.164 344.084C278.467 369.716 237.268 385 192.5 385C86.1852 385 0 298.815 0 192.5C0 86.1852 86.1852 0 192.5 0ZM192.5 36C106.067 36 36 106.067 36 192.5C36 278.933 106.067 349 192.5 349C278.933 349 349 278.933 349 192.5C349 106.067 278.933 36 192.5 36ZM210 174H290V210H210V290H174V210H94V174H174V94H210V174Z" fill="#A0C3E3"/>
</svg>
